<?xml version="1.0" encoding="UTF-8"?>
<svg width="900" height="600" version="1.1" viewBox="-910 -585 2089.2857 1392.8571" xmlns="http://www.w3.org/2000/svg" xmlns:xlink="http://www.w3.org/1999/xlink">
 <rect x="-910" y="-585" width="2089.5" height="1392.9" fill="#75aadb"/>
 <rect x="-910" y="-120.71" width="2089.5" height="464.29" fill="#fff"/>
 <g transform="matrix(1.1481 0 0 1.1905 134.75 111.43)" fill="#fcbf49" stroke="#843511" stroke-width="1.2831">
  <g id="e">
   <g id="b" stroke-width="1.2831">
    <g id="c">
     <g id="d" stroke-width="1.2831">
      <path d="m-8 0 6 159.5s0 3 2 3 2-3 2-3l6-159.5" stroke-width="1.2831"/>
      <path d="M -4,0 0,109.5 4,0" fill="#843511" stroke="none"/>
      <g transform="matrix(.97992 .19937 -.19937 .97992 0 0)" stroke-width="1.2831">
       <path d="m-4.5 53.5c-5 21.5 6 36 0.5 55s3 32 4 40-5 11.5-3 13 8-3.5 8.5-14.5-7-15.75-0.5-39-4-31 3-52" stroke-width="1.2831"/>
       <path d="m-1 58c-3 21 7 32.5 1 51 8-14-2-28 3-50" fill="#843511" stroke="none"/>
      </g>
     </g>
     <use transform="scale(-1)" width="1820" height="1170" stroke-width="1.2831" xlink:href="#d"/>
    </g>
    <use transform="rotate(90)" width="1820" height="1170" stroke-width="1.2831" xlink:href="#c"/>
   </g>
   <use transform="matrix(.70711 .70711 -.70711 .70711 0 0)" width="1820" height="1170" stroke-width="1.2831" xlink:href="#b"/>
  </g>
  <use transform="matrix(.92388 .38268 -.38268 .92388 0 0)" width="1820" height="1170" stroke-width="1.2831" xlink:href="#e"/>
  <circle r="65" d="M 65,0 C 65,35.898509 35.898509,65 0,65 -35.898509,65 -65,35.898509 -65,0 c 0,-35.898509 29.101491,-65 65,-65 35.898509,0 65,29.101491 65,65 z" stroke-width=".85537"/>
  <g id="a" fill="#843511" stroke="none">
   <path d="m41-14c-11.5-10-26-11.5-34-4a140 50 10 0 0 1.5 26.5c-0.5 0-1.5 0.5-2 1a80 50 10 0 1 -2.5 -28.5c11-9 26-10 37 5"/>
   <path d="m23-17c-6.5 0-8 1.5-11 4s-4.5 2-5 2.5 0 2 1 1.5 3-1.5 6-4 6-2.5 9-2.5c9 0 14 7.5 15 7s-5-8.5-15-8.5"/>
   <path d="m34.5-8.5c-6.5-7-18.5-7.5-23.5 0.5h2c5-8 17-4.5 18-1v1"/>
   <circle cx="22" cy="-9" r="4.5" d="m 26.5,-9 c 0,2.4852814 -2.014719,4.5 -4.5,4.5 -2.485281,0 -4.5,-2.0147186 -4.5,-4.5 0,-2.485281 2.014719,-4.5 4.5,-4.5 2.485281,0 4.5,2.014719 4.5,4.5 z"/>
   <path d="m11-8c5 4.5 16 5 23.5-0.5l-3.5-0.5c-5 5.5-13 5-18 1v-1"/>
   <path d="m35-6c-8.5 6.5-17 6-22 3s-5-4-4-4 2 1 6 3 10 2 20-2"/>
   <path d="m10.5 9a3 3 0 1 1 -4 3c-0.5 1-2.5 4-6.5 4h-1l1 1.5c1 0 4 0 6-1.5a4.5 4.5 0 1 0 4.5 -7"/>
   <path d="m16.5 30c-4.5-3-6.5-7.5-11.5-7.5-1 0-3 0.5-5 1.5h-1l1 1.5c2 0 5-2.5 8.5-0.5s5.5 4 8 5"/>
   <path d="m15 30c-10-3-12-1-15-1h-1l1 2c4 0 6-3 15-1"/>
   <path d="m16.5 30c-11-1-7.5 5.5-16.5 5.5h-1l1 1.5c11 0 6-6 16.5-7"/>
   <path d="m9 46a9 9 0 0 0 -18 0 9.25 9.25 0 0 1 18 0"/>
  </g>
  <use transform="scale(-1,1)" width="1820" height="1170" stroke-width="1.2831" xlink:href="#a"/>
 </g>
</svg>
