<?xml version="1.0" encoding="UTF-8"?>
<svg width="900" height="600" version="1.1" viewBox="0 0 21262.5 14175" xmlns="http://www.w3.org/2000/svg" xmlns:xlink="http://www.w3.org/1999/xlink">
 <defs>
  <polygon id="a" points="8.7744 2.0027 3.1273 2.494 3.905 8.1087 0 4 -3.905 8.1087 -3.1273 2.494 -8.7744 2.0027 -3.8997 -0.89008 -7.0365 -5.6114 -1.7355 -3.6039 0 -9 0 -9 1.7355 -3.6039 7.0365 -5.6114 3.8997 -0.89008"/>
  <polygon id="c" points="5.2901 7.2812 0 4 -5.2901 7.2812 -3.8042 1.2361 -8.5595 -2.7812 -2.3511 -3.2361 0 -9 0 -9 2.3511 -3.2361 8.5595 -2.7812 3.8042 1.2361"/>
 </defs>
 <path d="m0 0h21262v14175h-21262v-14175z" fill="#00008b"/>
 <use transform="matrix(177.19 0 0 236.25 5315.6 10631)" width="30240" height="15120" fill="#ffffff" xlink:href="#a"/>
 <use transform="matrix(84.375 0 0 112.5 15947 11812)" width="30240" height="15120" fill="#ffffff" xlink:href="#a"/>
 <use transform="matrix(84.375 0 0 112.5 13289 6201.6)" width="30240" height="15120" fill="#ffffff" xlink:href="#a"/>
 <use transform="matrix(84.375 0 0 112.5 15947 2362.5)" width="30240" height="15120" fill="#ffffff" xlink:href="#a"/>
 <use transform="matrix(84.375 0 0 112.5 18309 5256.6)" width="30240" height="15120" fill="#ffffff" xlink:href="#a"/>
 <use transform="matrix(49.219 0 0 65.625 17010 7678.1)" width="30240" height="15120" fill="#ffffff" xlink:href="#c"/>
 <path d="m4429.7 0h1771.9v2362.5h4429.7v2362.5h-4429.7v2362.5h-1771.9v-2362.5h-4429.7v-2362.5h4429.7v-2362.5z" fill="#fff"/>
 <path id="b" d="m0 0h1188.6l9442.6 6295.1v792.41h-1188.6l-9442.6-6295.1v-792.41z" fill="#fff"/>
 <use transform="matrix(-1 0 0 1 10631 0)" width="30240" height="15120" fill="#ffffff" xlink:href="#b"/>
 <path d="m4784.1 0h1063.1v2835h4784.1v1417.5h-4784.1v2835h-1063.1v-2835h-4784.1v-1417.5h4784.1v-2835z" fill="#f00"/>
 <path id="d" d="m0 0 3543.8 2362.5h-792.41l-2751.3-1834.2v-528.27zm10631 0h-792.41l-3543.8 2362.5h792.41l3543.8-2362.5z" fill="#f00"/>
 <use transform="matrix(-1 0 0 -1 10631 7087.5)" width="30240" height="15120" fill="#ff0000" xlink:href="#d"/>
</svg>
