<?xml version="1.0" encoding="UTF-8"?>
<svg version="1.1" viewBox="0 0 900 600" xmlns="http://www.w3.org/2000/svg">
 <rect width="900" height="600" fill="#f00"/>
 <rect x="225" width="450" height="600" fill="#fff"/>
 <path d="m449.99 56.25-30.702 76.35c-3.4838 8.298-9.7256 7.5284-15.968 2.8936l-22.227-15.346 16.566 117.27c3.4838 21.425-7.6937 21.425-13.21 12.161l-38.791-57.901-6.2976 29.404c-0.72623 3.8613-3.9193 7.9169-8.7097 6.9511l-49.052-13.751 12.884 62.454c2.758 13.897 4.9094 19.65-2.7844 23.316l-17.484 10.956 84.439 91.45c3.3422 3.4578 5.0307 9.6804 3.8409 15.315l-7.3902 32.336c29.074-4.4684 55.139-8.468 84.212-12.931 2.5833-0.043 6.8669 2.8843 6.8493 6.8521l-3.8522 118.47h14.136l-2.2251-118.21c-0.0177-3.9678 3.867-7.1492 6.4502-7.1062 29.073 4.4628 55.139 8.4624 84.212 12.931l-7.3902-32.336c-1.1898-5.6341 0.49876-11.857 3.8409-15.315l84.439-91.45-17.484-10.956c-7.6938-3.6652-5.5424-9.4189-2.7844-23.316l12.884-62.454-49.052 13.751c-4.7904 0.9658-7.9835-3.0898-8.7098-6.9511l-6.2976-29.404-38.791 57.901c-5.5162 9.2638-16.694 9.2638-13.21-12.161l16.566-117.27-22.227 15.346c-6.242 4.6347-12.484 5.4044-15.968-2.8936" fill="#f00"/>
</svg>
