<?xml version="1.0" encoding="UTF-8"?>
<svg version="1.0" viewBox="0 0 900 600" xmlns="http://www.w3.org/2000/svg" xmlns:xlink="http://www.w3.org/1999/xlink">
 <defs>
  <path id="a" d="m0-76.45c4-0.05 5.5-2.55 5.5-5.55 0-4-5.5-23.05-5.5-23.05s-5.5 19.05-5.5 23.05c0 3 1.5 5.55 5.5 5.55z"/>
  <path id="b" d="m-1 15c0-10 9-15.14 16.072-15.14 9.5279 0 14.601 5.683 14.601 13.122 0 4.2169-0.77453 6.863-2.7237 10.899 0 0-15.717 32.606-21.836 45.217-0.76309 1.5729-1.0093 3.3634-1.0093 5.9885 0 4.0539 3.9416 7.3673 8.0744 7.4688 3.7675 0.094 7.8725-3.5039 7.8725-7.6033 0-4.9796-2.5894-7.1996-5.2483-7.1996-3.2718 0-4.5755 1.3418-4.5755 3.6335 0 1.5968 0.77308 2.2877 1.884 2.2877 2.8063 0 2.0186-3.768 2.0186-3.768 1.3938 0.3044 2.5388 1.725 1.884 3.4989 1.0196 0.22647 1.9747 0.7604 2.7251 1.6149-0.75228 0.72756-1.6152 1.2892-2.7251 1.4803 0.65722 2.1644-0.221 3.222-2.1195 3.6671 0.38311-0.8326 0.39629-1.5985 0.26914-2.3214-2.9889 0.84788-7.5697-0.5014-7.5697-5.652 0-5.1138 3.5576-9.4196 10.228-8.3435-1.5869-0.75687-2.394-2.3055-2.5569-4.0372 1.2112 0.471 2.5569 0.53829 2.5569 0.53829-0.77989-1.3719-1.8631-2.5544-1.8167-5.2483 1.2367 0.56086 2.3851 1.5994 3.9699 0.94201-2.4873-4.8826 0.56859-11.599 8.3435-13.188-2.8455 3.3273-4.239 6.9201-4.239 10.497 0 11.592 3.2297 13.54 3.2297 21.599 0 3.3717-1.7375 7.013-5.181 9.4874v-0.13457c2.2764 0.60703 3.7338 1.726 4.5721 3.2445-5.2001 1.4714-12.759 1.4436-16.818-0.14934-4.6656-0.53829-7.9221-4.11-8.8818-5.9212s-2.8237-8.3649 0-14.265c3.0903-6.4569 17.661-37.277 22.204-46.966 0.9636-2.055 1.5476-4.2343 1.5476-6.5941 0-5.9349-5.4502-8.0071-8.5454-8.0071-3.7007 0-7.4688 2.8125-7.4688 6.3249 0 2.2256 1.2112 3.5662 2.9606 3.5662 4.1833 0 3.9292-3.55 3.0952-5.7866 2.6035 1.1676 4.1168 3.252 3.7007 5.4502 1.474 0.2014 2.877 0.89888 4.1717 2.355-1.0187 1.2832-2.2612 2.2532-4.1717 2.2877 0.83444 3.41-1.4543 4.8522-3.7007 5.652 0.71068-2.5027 1.1772-5.3829-3.0952-5.3829-3.115 0-5.5679-0.53829-6.9978-2.5569-0.084108 2.6914-0.33643 13.323-0.33643 13.323-0.17943 3.995 5.3605 3.8808 8.8818 2.6914-1.3289 4.6018-4.0543 7.0898-10.362 6.4595 1.5308 0.63922 3.1625 2.0762 3.1625 4.8446 0 3.7468-3.0465 7.8971-5.0465 9.1243l-1-39z"/>
  <path id="f" d="m0-35.599s4.7531-3.9844 6.3671-1.9859c2.5961 3.2144-7.982 19.225-7.982 24.863 0 9.255 6.1902 11.772 13.834 13.093 5.1287 0.88649 13.481-0.37164 13.481-0.37164-1.5725-2.1079-2.5953-2.729-5.245-2.8975 2.9499-1.5278 5.9538-4.8441 5.9538-10.007 0-7.9617-3.2855-11.243-3.2855-20.219 0-4.9792 4.0929-11.318 4.0929-11.318-7.2343 0.72228-10.82 7.4047-8.7799 12.745-1.1516 0.16548-2.1972-0.09311-3.0952-0.94201-0.52945 1.4803 0.30635 3.1985 1.426 4.6788-0.90173 0.48068-1.564 0.19242-3-0.10332 0.13618 1.5252 1.0523 3.1455 3.2936 4.6706-6.5041-1.6845-10.506 2.8376-10.506 7.5715 0 3.5758 2.5119 6.1386 4.9671 6.1386 0.79347 0 1.959-0.326 2.6166-0.8156 0.46352 0.98414 0.22467 2.3013-0.25282 3.2855 1.7996-0.47454 2.9418-1.5407 2.1287-3.7599 1.3822-0.12667 2.4817-0.59257 3.2297-1.4803-0.75781-0.96814-1.9074-1.5258-3.2297-1.4803 1.0064-2.0718-0.11515-3.2317-1.7494-4.1718 0 0 1.0393 4.1717-1.6149 4.1717-1.1935 0-2.281-0.38758-2.281-2.1422 0-1.5279 1.339-3.6444 4.4341-3.5098 3.0952 0.13457 5.6045 2.1289 5.6045 7.0577 0 4.5468-3.6762 6.8081-8.5205 6.9542-4.3688 0.13457-7.6662-2.2263-7.6662-6.7219 0-5.9835 8.6588-19.622 8.6588-24.954 0-4.0006-3.6064-6.2337-7.1351-6.2337-4.5755 0-8.4359 4.5197-8.4359 4.5197l2.6915 3.3643z"/>
 </defs>
 <rect x=".10487" y=".076294" width="899.79" height="599.85" fill="#00afca"/>
 <use transform="matrix(.88208 .23394 -.17546 1.1761 486.2 252.01)" width="1000" height="500" fill="#fec50c" xlink:href="#a"/>
 <use transform="matrix(.8309 .45888 -.34417 1.1078 486.2 252.01)" width="1000" height="500" fill="#fec50c" xlink:href="#a"/>
 <use transform="matrix(.74779 .6662 -.49966 .99703 486.2 252.01)" width="1000" height="500" fill="#fec50c" xlink:href="#a"/>
 <use transform="matrix(.63594 .84791 -.63594 .84791 486.2 252.01)" width="1000" height="500" fill="#fec50c" xlink:href="#a"/>
 <use transform="matrix(.49966 .99703 -.74779 .6662 486.2 252.01)" width="1000" height="500" fill="#fec50c" xlink:href="#a"/>
 <use transform="matrix(.34417 1.1078 -.8309 .45888 486.2 252.01)" width="1000" height="500" fill="#fec50c" xlink:href="#a"/>
 <use transform="matrix(.17546 1.1761 -.88208 .23394 486.2 252.01)" width="1000" height="500" fill="#fec50c" xlink:href="#a"/>
 <use transform="matrix(0 1.1991 -.89936 0 486.2 252.01)" width="1000" height="500" fill="#fec50c" xlink:href="#a"/>
 <use transform="matrix(-.17546 1.1761 -.88208 -.23394 486.2 252.01)" width="1000" height="500" fill="#fec50c" xlink:href="#a"/>
 <use transform="matrix(-.34417 1.1078 -.8309 -.45888 486.2 252.01)" width="1000" height="500" fill="#fec50c" xlink:href="#a"/>
 <use transform="matrix(-.49966 .99703 -.74779 -.6662 486.2 252.01)" width="1000" height="500" fill="#fec50c" xlink:href="#a"/>
 <use transform="matrix(-.63594 .84791 -.63594 -.84791 486.2 252.01)" width="1000" height="500" fill="#fec50c" xlink:href="#a"/>
 <use transform="matrix(-.74779 .6662 -.49966 -.99703 486.2 252.01)" width="1000" height="500" fill="#fec50c" xlink:href="#a"/>
 <use transform="matrix(-.8309 .45888 -.34417 -1.1078 486.2 252.01)" width="1000" height="500" fill="#fec50c" xlink:href="#a"/>
 <use transform="matrix(-.74779 -.6662 .49966 -.99703 486.2 252.01)" width="1000" height="500" fill="#fec50c" xlink:href="#a"/>
 <use transform="matrix(-.63594 -.84791 .63594 -.84791 486.2 252.01)" width="1000" height="500" fill="#fec50c" xlink:href="#a"/>
 <use transform="matrix(-.49966 -.99703 .74779 -.6662 486.2 252.01)" width="1000" height="500" fill="#fec50c" xlink:href="#a"/>
 <use transform="matrix(-.34417 -1.1078 .8309 -.45888 486.2 252.01)" width="1000" height="500" fill="#fec50c" xlink:href="#a"/>
 <use transform="matrix(-.17546 -1.1761 .88208 -.23394 486.2 252.01)" width="1000" height="500" fill="#fec50c" xlink:href="#a"/>
 <use transform="matrix(0 -1.1991 .89936 0 486.2 252.01)" width="1000" height="500" fill="#fec50c" xlink:href="#a"/>
 <use transform="matrix(.17546 -1.1761 .88208 .23394 486.2 252.01)" width="1000" height="500" fill="#fec50c" xlink:href="#a"/>
 <use transform="matrix(.34417 -1.1078 .8309 .45888 486.2 252.01)" width="1000" height="500" fill="#fec50c" xlink:href="#a"/>
 <use transform="matrix(.49966 -.99703 .74779 .6662 486.2 252.01)" width="1000" height="500" fill="#fec50c" xlink:href="#a"/>
 <use transform="matrix(.63594 -.84791 .63594 .84791 486.2 252.01)" width="1000" height="500" fill="#fec50c" xlink:href="#a"/>
 <circle transform="matrix(.88112 0 0 1.1748 486.13 252.11)" r="68.7" fill="#fec50c"/>
 <use transform="matrix(.89936 0 0 1.1991 486.2 252.01)" width="1000" height="500" fill="#fec50c" xlink:href="#a"/>
 <use transform="matrix(-.88208 .23394 -.17546 -1.1761 486.2 252.01)" width="1000" height="500" fill="#fec50c" xlink:href="#a"/>
 <use transform="matrix(-.89936 0 0 -1.1991 486.2 252.01)" width="1000" height="500" fill="#fec50c" xlink:href="#a"/>
 <use transform="matrix(-.88208 -.23394 .17546 -1.1761 486.2 252.01)" width="1000" height="500" fill="#fec50c" xlink:href="#a"/>
 <use transform="matrix(-.8309 -.45888 .34417 -1.1078 486.2 252.01)" width="1000" height="500" fill="#fec50c" xlink:href="#a"/>
 <use transform="matrix(.74779 -.6662 .49966 .99703 486.2 252.01)" width="1000" height="500" fill="#fec50c" xlink:href="#a"/>
 <use transform="matrix(.8309 -.45888 .34417 1.1078 486.2 252.01)" width="1000" height="500" fill="#fec50c" xlink:href="#a"/>
 <use transform="matrix(.88208 -.23394 .17546 1.1761 486.2 252.01)" width="1000" height="500" fill="#fec50c" xlink:href="#a"/>
 <path d="m484.1 392.95-1.0445 2.7852-1.1606 3.5589-0.69631 1.7021-0.58027 1.5474-0.4642 1.2379-0.58028 0.77368-1.3926-1.5474-1.5087-1.3926-1.6248-1.0831-1.7408-0.92842-1.8569-0.61894-1.8568-0.61894-1.8568-0.4642-1.9729-0.30948-4.0619-0.4642-4.0619-0.15474-3.9459-0.30947-3.7137-0.61894-2.089-0.46421-1.9729-0.61894-1.0445-0.46421-1.0445-0.4642-0.92843-0.61894-0.81238-0.61894-1.2766-1.0832-1.2766-1.2379-1.3926-1.3926-1.2766-1.5474-2.6692-3.4042-2.6692-3.4042-2.6692-3.2494-2.4371-2.94-1.1605-1.0831-1.1605-1.0832-1.0445-0.61894-1.0445-0.4642-1.9729-0.61895-1.7408-0.77367-1.7408-0.77368-1.7408-1.0832-1.5087-0.92841-1.5087-1.2379-1.3926-1.2379-1.2766-1.2379-1.3926-1.3926-1.1605-1.3926-1.1605-1.5474-1.1605-1.5474-2.205-3.2494-2.089-3.4042-4.1779-7.2726-4.41-7.4273-2.5532-3.5589-2.6692-3.5589-1.5087-1.8568-1.5087-1.7021-1.6248-1.5474-1.7408-1.7021-0.34816 0.15473-0.34817 0.46421-0.34816 0.61894-0.23211 0.77368-0.34816 1.3926-0.11605 0.61894-0.81238-0.4642-0.69632-0.46421-0.81238-0.46421-0.69632-0.30947h-1.5087l-0.81238 0.30947-0.81238 0.46421 0.81238 1.3926 1.0445 1.8568 1.0445 2.1663 0.92843 2.321 0.92843 2.4758 0.69633 2.321 0.2321 1.2379 0.23211 0.92842 0.11606 1.0831v0.92842h-1.2766-4.9903l0.92844 1.8568 1.0445 1.8568 1.1605 1.8568 1.2766 1.7021 1.2766 1.7021 1.2766 1.7021 1.2766 1.3926 1.1606 1.0832-1.2766 0.15473-1.7408 0.15474-1.7408 0.30947-1.2766 0.15473 1.0445 1.2379 1.2766 1.2379 1.3926 1.3926 1.5087 1.3926 1.5087 1.2379 1.5087 1.0832 1.3926 0.61894 1.2766 0.4642 0.58027 0.15474 0.46422 0.15474 0.34816 0.15473 0.23211 0.30947 0.11605 0.15474v0.61894l-0.11605 0.30947-0.23211 0.92841-0.11606 0.92841-0.11605 0.61894v0.46421l0.11605 0.77367 0.11606 0.61895 0.23211 0.30947 0.34816 0.30947 0.46421 0.30947 0.58027 0.15474 0.58027 0.30947 0.58027 0.30947 0.58027 0.30947 0.46422 0.4642 0.11605 0.15474v0.30947l-0.11605 0.15473-0.46422 0.46421-0.46421 0.46421-0.46422 0.61894-0.46422 0.77368v0.61894l-0.11605 0.61894 0.11605 0.77367 0.11606 0.92842 1.9729 0.92841 2.089 0.92841 0.92843 0.30947 0.92843 0.46421 0.69633 0.46421 0.58027 0.4642-3.8298 4.0231 1.0445 1.2379 1.2766 0.92841 1.6248 1.0832 1.6248 0.77368 1.8569 0.77368 1.7408 0.4642 1.5087 0.46421h1.3926l-1.2766 1.2379-1.6248 1.3926-1.7408 1.2379-1.2766 1.2379 1.1605 1.0832 1.6248 1.0832 1.8569 1.2379 2.205 1.3926 5.1064 2.94 5.5706 2.94 5.8027 2.7852 5.6866 2.4758 2.5532 1.0831 2.3211 0.77368 2.089 0.77367 1.8569 0.46421-3.7137-0.46421-3.4816-0.61894-3.4816-0.77367-3.2495-0.92842-3.2495-1.2379-3.1334-1.2379-3.0174-1.3926-2.9014-1.5474-5.6866-3.0947-5.3385-3.0947-2.5532-1.3926-2.5532-1.3926-2.4371-1.2379-2.4371-1.2379 0.58027-0.4642 0.69633-0.30947 0.92843-0.46421 1.0445-0.30947 2.205-0.92842 1.9729-0.9284-3.4816-0.77368-4.7582-1.2379-2.3211-0.92842-1.9729-0.77367-0.81238-0.46421-0.69632-0.46421-0.58027-0.4642-0.34816-0.46421v-0.15473l0.11605-0.15474 0.34816-0.15474 0.34816-0.30946 0.92844-0.46421 1.2766-0.46421 2.7853-1.0832 2.3211-1.0831-5.6866-1.3926-4.41-0.92841-1.6248-0.46421-1.2766-0.61894-0.46422-0.30947-0.46421-0.4642-0.34817-0.30948-0.2321-0.4642 0.34816-0.30948 1.0445-0.30946 1.5087-0.30948 1.7408-0.4642 1.8569-0.30947 1.6248-0.61894 0.81237-0.30947 0.69633-0.30947 0.46421-0.46421 0.46422-0.46421-0.92843-0.4642-0.92843-0.46421-1.1605-0.30947-1.1605-0.30947-2.6692-0.46421-2.6692-0.4642-1.3926-0.46421-1.2766-0.30947-1.2766-0.61894-1.2766-0.61894-1.1606-0.77368-1.0445-1.0832-0.92843-1.0831-0.69633-1.3926 0.23211-0.15474 0.46422-0.15473h0.58026l0.92844 0.15473 2.089 0.15474 2.3211 0.15473 2.5532 0.30948h3.2495l0.92843-0.15474 0.69633-0.30947 0.46421-0.30947-2.7853-1.5474-3.7137-2.1663-2.089-1.3926-2.205-1.3926-2.205-1.5474-2.205-1.5474-2.089-1.7021-1.9729-1.8568-1.8569-1.8568-1.6248-1.8568-0.69632-1.0832-0.69633-0.92841-0.46421-0.92841-0.46422-1.0832-0.46422-0.92841-0.2321-1.0832-0.11606-0.92842-0.11605-1.0831h0.81238l0.92843 0.15474 0.92843 0.4642 0.92843 0.4642 1.8569 1.5474 2.089 1.5474 0.92843 0.77368 1.0445 0.77368 1.0445 0.61894 0.92843 0.4642 1.0445 0.30947 0.92843 0.15474h1.0445l0.92843-0.46421-2.7853-2.7852-3.1334-3.5589-3.5977-4.1778-3.5977-4.6421-3.5977-4.9515-3.3656-4.9515-1.5087-2.6305-1.5087-2.4758-1.2766-2.4758-1.1605-2.321-0.2321-0.61894v-1.0831l0.11605-0.46421 0.11605-0.46421 0.34817-0.30946 0.34816-0.46421 0.34816-0.30947 0.46421-0.15474 0.46422-0.15473h0.92843l0.58027 0.15473 0.46422 0.15474 0.46422 0.4642 0.34816 0.46421 2.089 2.7852 2.4371 3.2494 2.5532 3.5589 2.7853 3.5589 2.7853 3.2494 2.7853 3.0947 1.3926 1.2379 1.2766 1.0832 1.3926 0.92841 1.2766 0.61895-0.92843-0.77368-1.0445-1.3926-1.3926-1.8568-1.5087-2.321-3.3656-5.4157-3.7137-6.3442-1.8569-3.4042-1.7408-3.4042-1.6248-3.4042-1.6248-3.2494-1.3926-3.0947-1.1605-2.7852-0.81238-2.6305-0.69633-2.1663-0.11605-0.77368v-1.2379l0.11605-0.46421 0.23211-0.4642 0.23211-0.46421 0.23211-0.30947 0.34816-0.30947 0.81238-0.30947 0.69632-0.30947h1.6248l0.46422 0.15473 0.34816 0.15474 0.46421 0.30947 0.34816 0.46421 0.92844 1.0831 0.92843 1.5474 2.089 3.5589 2.205 4.4873 2.5532 4.7968 2.6692 4.9515 1.3926 2.321 1.3926 2.321 1.5087 2.0116 1.6248 1.8568-1.9729-5.1063-2.205-5.8799-1.1605-3.2494-1.0445-3.2494-1.0445-3.4042-0.92843-3.4042-0.81238-3.5589-0.81237-3.4042-0.58027-3.4042-0.46422-3.4042-0.23211-3.2494-0.11605-3.0947 0.11605-1.5474 0.11606-1.3926 0.11605-1.3926 0.23211-1.3926 0.23211-0.4642 0.11605-0.46421 0.34816-0.46421 0.23211-0.30947 0.81238-0.4642 0.81237-0.30947h0.81238l0.69633 0.15473 0.34816 0.15474 0.23211 0.15473 0.11605 0.30947 0.11605 0.46421 1.1605 4.9515 1.0445 5.261 1.0445 5.4157 1.0445 5.261 1.0445 5.261 1.3926 4.9515 0.69632 2.321 0.81238 2.321 0.92843 2.1663 1.0445 2.1663-0.69632-4.4873-0.46422-4.0231-0.46421-3.7136-0.23211-3.4042-0.23211-2.94-0.11605-2.6305 0.11605-2.1663 0.11606-1.8568 0.2321-1.5474 0.34817-1.2379 0.2321-0.46421 0.23211-0.4642 0.23211-0.30948 0.34816-0.30947 0.34816-0.15473h1.0445l0.92843 0.4642 0.92843 0.61894 0.81238 4.9515 0.81238 4.7968 0.92843 4.4873 1.0445 4.3326 1.1605 4.3326 1.2766 4.3326 1.3926 4.4873 1.6248 4.4873 1.1605 2.94 1.1605 2.94 1.2766 2.94 1.2766 2.94 1.3926 2.7852 1.3926 2.7852 1.5087 2.7852 1.5087 2.7852 2.7853 4.6421 2.9014 4.3326 3.0174 4.3326 3.1334 4.0231 3.2495 4.0231 3.3656 3.7136 3.4816 3.5589 3.5977 3.4042 2.4371 2.1663 2.5532 2.0116 2.6692 2.0116 2.5532 1.8568 4.0619 2.6305 3.9458 2.4758 4.178 2.1663 4.1779 2.0116 3.9458 1.7021 4.0619 1.3926 4.178 1.2379 4.0619 1.0832 4.294 0.77368 4.178 0.61894 4.294 0.4642 4.294 0.30948" fill="#fec50c" fill-rule="evenodd"/>
 <path d="m494.66 439.99 1.9729 0.30947 0.92844 0.46421 0.23211 0.15473v0.15473h-0.23211l-0.23214 0.15474-1.8568 0.4642h-1.5087l-4.8743-0.4642-5.9187-0.15474-6.383-0.15473-6.6151 0.15473-3.1335 0.15474-3.1334 0.30947-2.7853 0.30947-2.6692 0.30947-2.205 0.46421-1.9729 0.61894-0.69635 0.30947-0.6963 0.30947-0.58028 0.30947-0.4642 0.46421 0.2321-1.5474 0.46421-1.5474-0.81238 0.30947-0.81238 0.30947-0.6963 0.46421-0.69634 0.4642-0.58027 0.46421-0.46422 0.61894-0.34816 0.77368-0.11605 0.77368-0.34817-1.0832-0.2321-0.92842-0.11606-1.0831-0.11605-0.92842 0.11605-0.77367 0.11606-0.92841 0.11605-0.77368 0.34816-0.77368 0.23211-0.61894 0.46422-0.77367 0.46421-0.61894 0.46422-0.61895 1.2766-1.0831 1.3926-1.0832c0.752 0.60815 1.5975 1.0489 2.4372 1.3926 0.72807 0.12879 1.5943-0.0285 2.4371-0.30947 1.4163 1.6629 3.3103 1.4582 4.5261-0.30948 0.22189-0.32263 0.48971-0.81692 0.58028-1.2379 0.19197-0.89243 0.15498-2.0615 0-3.0947l1.3926-0.15474 1.6248-0.30947 1.7408-0.61894 1.8568-0.61894 1.8569-0.46421 1.7408-0.61894 1.6248-0.30947 1.3926-0.15474-0.58027 0.61894-1.3926 1.3926-1.6248 1.7021-1.1605 1.0832 1.5087 0.46421 1.2766 0.30946-0.92841 1.3926-0.92845 1.3926-0.92844 1.3926-0.69631 1.2379 0.92841 0.46421 0.92844 0.30947 1.0445 0.30947h2.089l1.0445-0.30947 1.0445-0.30947 0.81238-0.61894 0.92845 0.61894 0.9284 0.4642 0.92845 0.30948 0.92845 0.30947 2.089 0.30947 2.205 0.30947h8.8201" fill="#fec50c" fill-rule="evenodd"/>
 <path d="m459.03 431.17 0.34812 0.15474 0.34818 0.15474 0.11607 0.4642 0.11603 0.4642-0.11603 0.46421-0.11607 0.46421-0.34818 0.30947h-0.81237l-0.2321-0.30947-0.2321-0.46421-0.11608-0.46421 0.11608-0.4642 0.2321-0.4642 0.2321-0.15474 0.46425-0.15474" fill="#fec50c" fill-rule="evenodd"/>
 <path d="m458.91 431.79 0.2321 0.15474 0.11608 0.30947-0.11608 0.30947-0.2321 0.15474-0.2321-0.15474-0.11607-0.30947 0.11607-0.30947 0.2321-0.15474" fill="#fec50c" fill-rule="evenodd"/>
 <path d="m458.99 433.92c-0.58783 5.5e-4 -1.0646-0.63465-1.0646-1.4184 0-0.78375 0.47675-1.419 1.0646-1.4184 0.58779-5.5e-4 1.0646 0.63465 1.0646 1.4184 0 0.78376-0.47676 1.419-1.0646 1.4184z" fill="#fec50c"/>
 <path d="m545.49 447.57-0.81238 0.4642-0.81237 0.15474-0.69631 0.15474-0.58027-0.15474-0.58028-0.15474-0.58027-0.30946-0.4642-0.30948-0.58028-0.4642-0.92845-0.92842-0.9284-0.92841-0.46425-0.4642-0.58027-0.30947-0.4642-0.15474h-0.58028l-1.0445 2.94-1.3927 3.7136-0.4642 0.92841-0.46424 0.77368-0.46421 0.4642-0.4642 0.46421-0.58027 0.30947h-0.58028l-0.58027-0.30947-0.6963-0.46421-0.23211-0.4642-0.23214-0.4642-0.2321-0.61895-0.2321-0.77367-0.2321-1.3926-0.11608-0.92841-0.6963 0.77367-0.69635 1.0832-0.58023 1.2379-0.69634 1.3926-0.81238 1.3926-0.81238 1.0832-0.4642 0.61894-0.58027 0.46421-0.58028 0.30946-0.69634 0.30948h-0.34813l-0.58028 0.15473-0.58027-0.15473-0.4642-0.30948-1.3927-2.1663-1.5087-2.1663-1.0445 2.1663-1.1605 1.8568-0.58028 0.77367-0.58027 0.77367-0.58028 0.61895-0.58023 0.4642-0.46425 0.30948-0.58027 0.15473h-0.58027l-0.46421-0.15473-0.4642-0.30948-0.34817-0.4642-0.4642-0.77368-0.2321-0.92841-0.23215-0.92841-0.4642-1.5474-0.11603-0.77367-0.23215-0.61895-0.2321-0.30946h-0.2321l-3.1335 6.8084-0.4642 0.61894-0.81238 0.46421-0.92845 0.30947-0.9284 0.30947h-1.0445l-0.81237-0.30947-0.23215-0.15473-0.34813-0.46421-0.11607-0.30947v-0.61894l0.4642-6.8084-0.34813 0.15474-0.46425 0.30946-0.4642 0.30948-0.4642 0.61894-0.92845 1.3926-1.0445 1.5474-1.0445 1.7021-1.2766 1.3926-0.58028 0.61894-0.58023 0.61894-0.69635 0.4642-0.58027 0.15474-0.81238 0.15474-0.58027-0.15474-0.2321-0.15474-0.2321-0.30946-0.11608-0.46421v-0.46421l0.11608-2.0116 0.2321-2.0116 0.11607-1.0832-0.11607-0.92842-0.11603-0.92841-0.46425-1.0832-0.6963 1.3926-1.1606 2.0116-1.3926 2.0116-1.5087 2.0116-0.81242 0.77368-0.81237 0.77368-0.69631 0.30946-0.58027 0.30948-0.2321-0.15474h-0.34818l-0.2321-0.30947-0.11607-0.15473-0.2321-0.46421-0.11603-0.46421v-0.61894l-0.11607-0.77368 0.11607-5.8799-2.9014 2.6305-3.4816 2.94-0.81237 0.46421-0.92845 0.61894-0.81238 0.30947-0.9284 0.30947-0.81237 0.30948h-0.81243l-0.81237-0.15474-0.6963-0.30947 0.34817-1.2379 0.34813-1.0832 0.34817-1.0831 0.4642-0.92841 0.46425-0.92841 0.4642-0.92842 0.58028-0.77367 0.58027-0.77368 1.2766-1.2379 1.5087-1.2379 1.5087-0.92842 1.7408-0.77367 1.7408-0.61894 1.9729-0.46421 1.9729-0.46421 1.9729-0.30947 4.294-0.30947 4.41-0.15474h8.8201l2.205-0.15473 2.089-0.15473 2.089-0.15474 1.9729-0.30947 1.9729-0.46421 1.7408-0.4642 1.7408-0.61895 1.6248-0.92841 1.5087-0.92841 1.2766-1.2379 1.2766-1.2379 1.0445-1.7021-1.1606-3.0947 0.92845-0.15474 0.9284-0.30947 0.92845-0.61894 0.81237-0.77367 0.34818-0.30948 0.34813-0.4642 0.23214-0.61894 0.2321-0.46421 0.11603-0.61894v-1.0832l-0.2321-0.61894 1.9729-0.46421 2.089-0.30946 2.205-0.15474h2.3211l4.7582 0.30947 4.8742 0.46421 4.9903 0.77367 4.8742 0.61894 4.7582 0.61895 4.41 0.30947v2.1663l-0.11607 0.92841-0.2321 0.92842-0.2321 0.92841-0.2321 0.77368-0.34818 0.61894-0.4642 0.77367-0.81237 1.0832-1.0445 0.92841-1.0445 0.61894-1.1606 0.30948-1.2766 0.30946-1.2766-0.15473-1.1606-0.15473-1.2766-0.46421-1.1606-0.77368-1.1606-0.77368-0.92845-1.0831-0.92841-1.2379v2.6305l-0.34817 3.4042-0.2321 1.7021-0.34817 1.5474-0.2321 0.61894-0.34818 0.4642-0.2321 0.46421-0.34817 0.30947m-93.307-14.545 2.6693 1.5474 0.69631-0.77368 0.92845-0.92841 1.0445-0.77367 0.92845-0.77368 3.4816-1.8568 3.0174-1.8568 1.5087-0.77368 1.2766-0.92841 1.2766-0.92841 1.0445-0.92841 2.6693-2.321 2.6692-2.321 2.5532-2.1663 2.321-2.1663 1.7408-1.8568 1.3926-1.7021 1.5087-1.8568 1.6248-2.0116 0.58023-0.77368 0.69635-0.61894 0.81238-0.61894 0.92845-0.61894 1.9729-1.2379 1.9729-0.9284 2.6693-0.92842 2.9013-0.92841 3.0174-0.77368 3.3656-0.77368 4.0619-0.61894 4.0619-0.77367 4.178-0.61894 4.0619-0.92841 1.3926-0.30947 1.2766-0.46421 1.3926-0.46421 1.3926-0.4642 1.3926-2.321 2.205-3.2494 1.5087-2.0116 1.7408-1.8568 1.9729-2.0116 2.3211-2.0116 3.4816-2.7852 3.7138-2.4758 3.8298-2.6305 3.7138-2.321 3.4816-2.321 3.2495-2.1663 2.6692-1.8568 2.089-1.8568 0.58027-2.321 0.81238-2.321 1.0445-2.321 1.2766-2.321 1.3926-2.4758 1.7408-2.4758 1.8568-2.7852 2.3211-2.94 2.089-2.4758 2.205-2.4758 1.1606-1.0832 1.1606-1.0832 1.2766-0.92841 1.2766-0.92841 1.2766-0.77368 1.2766-0.61894 1.3926-0.46421 1.2766-0.46421 1.3926-0.15473 1.2766-0.15473 1.3926 0.15473 1.2766 0.30947-0.11607 1.8568-0.34813 1.8568-0.46425 1.8568-0.58023 2.0116-0.81242 2.0116-1.0445 2.0116-1.2766 2.1663-1.5087 2.1663 1.1606-0.15473 1.0445-0.30947 0.81237-0.30947 0.81238-0.46421 0.69635-0.30947 0.81237-0.30947 1.0445-0.15473 1.1606-0.15474 0.11607 1.0831v1.0832l-0.11607 1.0832-0.2321 0.92841-0.34818 0.92842-0.4642 0.9284-0.46424 0.77368-0.58023 0.77368-2.4372 3.0947-2.4371 2.94 1.3926 0.15474 1.5087 0.61894 1.5087 0.61894 1.1606 0.30946-1.3926 1.3926-1.6248 1.3926-1.6248 1.3926-1.8569 1.3926-1.8569 1.3926-1.8569 1.5474-1.8568 1.7021-1.7408 1.8568 0.81237 0.15473 1.0445 0.61894 0.46425 0.15473 0.4642 0.30948 0.34817 0.15473 0.34818-0.15473-2.3211 1.7021-2.9013 1.8568-1.3926 0.92841-1.1606 0.92841-0.58028 0.46421-0.34817 0.46421-0.2321 0.4642-0.2321 0.46421 0.11603 0.61894 0.23214 0.4642 0.4642 0.46421 0.34818 0.46421-0.11607 0.61894-0.23211 0.4642-0.4642 0.46421-0.46424 0.46421-1.0445 0.77367-1.3926 0.77368-1.3926 0.61894-1.2766 0.61894-0.92845 0.61894-0.6963 0.46421 2.321 3.0947-0.81237 1.0832-0.81238 0.77367-0.6963 0.46421-0.81238 0.4642-1.6248 0.30947h-2.205l0.2321 1.3926 0.34817 1.3926 0.2321 1.5474 0.2321 1.5474-1.9729 2.0116-2.4371 2.321-2.6692 2.321-3.0174 2.321-1.7408 1.2379-1.7408 1.0832-1.8568 0.92841-1.9729 0.92841-2.089 0.92841-2.205 0.61894-2.3211 0.61894-2.4371 0.46421 4.294 0.15474h3.7138l3.4816-0.46421 3.1335-0.4642 2.9013-0.77368 2.5532-0.92841 2.5532-1.2379 2.4371-1.2379 3.2495-2.0116 3.1335-2.321 3.0174-2.4758 3.1334-2.4758-1.8568-1.2379-1.8568-0.77368-0.92845-0.4642-0.9284-0.61895-1.0445-0.61894-1.0445-0.77367 0.92845-0.92842 1.0445-0.61894 1.2766-0.61894 1.3926-0.46421 2.7853-0.77367 2.9014-0.46421 2.5532-0.4642 2.3211-0.30948 0.92845-0.30946 0.81237-0.30948 0.4642-0.30946 0.34818-0.46421-0.11607-0.15474-0.23211-0.30947-0.34817-0.15474-0.4642-0.30946-1.2766-0.30948-1.6248-0.30947-1.6248-0.15473-1.6248-0.30947-1.3926-0.46421-0.9284-0.46421 3.1334-0.9284 3.1335-0.92842 2.7853-0.77368 2.3211-0.77367 1.9729-0.77368 1.7408-0.92841 0.81237-0.46421 0.58028-0.4642 0.58027-0.46421 0.4642-0.61894-0.11607-0.15473-0.2321-0.30948-0.4642-0.15473-0.58028-0.15474-1.5087-0.15473h-1.7408l-1.8568-0.15474-1.7408-0.15473-1.5087-0.30948-0.9284-0.30946 0.81237-0.46421 0.81238-0.46421 2.7853-1.0831 2.4371-0.92842 2.205-0.77367 2.089-0.92842 2.205-0.92841 2.205-1.2379 1.0445-0.77367 0.92845-0.77368 0.34818-0.46421 0.34817-0.61894 0.34813-0.46421 0.11607-0.46421-0.11607-0.4642-0.34813-0.30947-0.34817-0.15473h-3.2495l-1.5087 0.15473h-2.089l-0.58028-0.15473-0.4642-0.30948-0.46425-0.30946 4.6422-4.0231 4.294-3.7136 3.8298-3.2494 3.3656-3.0947 1.3926-1.5474 1.2766-1.5474 1.0445-1.5474 0.92845-1.5474 0.6963-1.7021 0.58027-1.7021 0.34818-1.8568v-2.0116h-0.81238l-0.81237 0.15474-0.92845 0.4642-0.92845 0.46421-1.8568 1.5474-1.9729 1.5474-1.0445 0.77367-0.92841 0.77368-1.0445 0.61894-1.0445 0.46421-0.9284 0.30947-0.92845 0.15473h-1.0445l-0.92845-0.4642 2.7853-2.7852 3.1335-3.5589 3.5976-4.1779 3.5977-4.642 3.5977-4.9515 3.3656-4.9515 1.5087-2.6305 1.5087-2.4758 1.2766-2.4758 1.1605-2.321 0.2321-0.61894 0.11607-0.46421-0.11607-0.61894-0.11603-0.4642-0.11607-0.46421-0.34813-0.30947-0.34817-0.46421-0.34818-0.15473-0.4642-0.30947-0.46424-0.15474h-0.92841l-0.4642 0.15474-0.58027 0.15473-0.34818 0.46421-0.4642 0.46421-2.089 2.7852-2.4371 3.2494-2.5532 3.5589-2.7853 3.5589-2.7852 3.2494-2.7853 3.0947-1.3926 1.2379-1.2766 1.0832-1.3926 0.92841-1.1605 0.77368 0.81238-0.92841 1.0445-1.3926 1.3926-1.8568 1.5087-2.321 3.3656-5.4157 3.7138-6.3442 1.8568-3.4042 1.7408-3.4042 1.7408-3.2494 1.5087-3.4042 1.3926-3.0947 1.1605-2.7852 0.92845-2.6305 0.58027-2.1663 0.11608-0.77367v-1.2379l-0.11608-0.46421-0.2321-0.4642-0.2321-0.4642-0.2321-0.30948-0.34817-0.15473-0.69635-0.46421-0.81238-0.30947h-1.6248l-0.4642 0.15474-0.34817 0.15473-0.46421 0.30948-0.34817 0.4642-0.92845 1.0831-0.9284 1.5474-2.089 3.5589-2.205 4.4873-2.4371 4.7968-2.6692 4.9515-1.5087 2.321-1.3926 2.321-1.5087 2.0116-1.6248 1.8568 2.089-5.1063 2.089-5.8799 1.1606-3.2494 1.0445-3.2494 1.0445-3.4042 0.92845-3.4042 0.81237-3.5589 0.81238-3.4042 0.58027-3.4042 0.46421-3.4042 0.2321-3.2494 0.11607-3.0947-0.11607-1.5474-0.11608-1.3926-0.11602-1.3926-0.2321-1.3926-0.11608-0.46421-0.2321-0.4642-0.34817-0.46421-0.2321-0.30947-0.81238-0.46421-0.81237-0.30947h-0.81238l-0.69635 0.15474-0.2321 0.15473-0.34813 0.15474-0.11607 0.30947-0.11607 0.4642-1.1605 5.1063-1.0445 5.1063-1.0445 5.4157-1.0445 5.261-1.0445 5.261-1.3926 4.9515-0.69635 2.4758-0.81237 2.1663-0.92841 2.321-1.0445 2.0116 0.69635-4.4873 0.4642-4.0231 0.46425-3.7136 0.2321-3.4042 0.2321-2.94 0.11603-2.6305-0.11603-2.1663-0.11607-1.8568-0.2321-1.5474-0.34818-1.2379-0.2321-0.46421-0.2321-0.4642-0.2321-0.30947-0.34817-0.15474-0.34818-0.15473-0.34813-0.15474h-0.34817l-0.34817 0.15474-0.92841 0.30947-0.92845 0.61894-0.81237 4.9515-0.81238 4.7968-0.92845 4.4873-1.0445 4.3326-1.1606 4.3326-1.2766 4.3326-1.3926 4.4873-1.6248 4.4873-1.1606 2.94-1.1606 2.94-1.2766 2.94-1.2766 2.94-1.3926 2.7852-1.3926 2.7852-1.5087 2.7852-1.5087 2.7852-2.7853 4.6421-2.9014 4.3326-3.0174 4.3326-3.1334 4.0231-3.2495 4.0231-3.3656 3.7136-3.4816 3.5589-3.5977 3.4042-2.4371 2.1663-2.5532 2.1663-2.5532 2.0116-2.5532 2.0116-4.0619 2.4758-4.0619 2.4758-4.178 2.0116-4.178 2.0116-3.4816 1.3926-3.4816 1.3926-3.5977 1.0832-3.5976 1.0831-3.5977 0.77368-3.7138 0.61895-3.5977 0.61894-3.7137 0.30947-0.34818 0.15473-0.34817 0.15474-0.6963 0.4642-0.81238 0.77368-1.1606 1.3926-1.5087 1.8568-1.8568 2.4758-2.205 3.2494-2.089 3.2494-2.4371 3.5589-1.2766 1.7021-1.2766 1.7021-1.5087 1.5474-1.5087 1.5474-1.1606 1.0832-1.1606 0.92841-1.2766 0.77368-1.2766 0.77367-2.7853 1.5474-2.7853 1.3926-2.7853 1.3926-2.4371 1.2379-1.0445 0.61895-1.0445 0.77367-0.92841 0.61894-0.69634 0.61894-0.69631 0.92842-0.58027 0.77367-0.34817 0.77368-0.23211 0.77368-0.11607 1.0831v0.61894" fill="#fec50c" fill-rule="evenodd"/>
 <path d="m458.91 432.85c-0.23979 2.2e-4 -0.43428-0.25889-0.43428-0.5786 0-0.31972 0.19449-0.57883 0.43428-0.57861 0.23979-2.2e-4 0.43424 0.25889 0.43424 0.57861 0 0.31971-0.19445 0.57882-0.43424 0.5786z" fill="#fec50c" stroke="#0f0" stroke-width=".38127"/>
 <use id="e" transform="matrix(.9097 0 0 1.2017 54.092 404.66)" width="1000" height="500" fill="#fec50c" xlink:href="#b"/>
 <use id="c" transform="matrix(.9097 0 0 -1.2831 54.092 509.91)" width="1000" height="500" fill="#fec50c" xlink:href="#f"/>
 <use id="d" transform="matrix(.9097 0 0 -1.2017 54.092 405.24)" width="1000" height="500" fill="#fec50c" xlink:href="#b"/>
 <use transform="matrix(-1 0 0 1 108.18 0)" width="2000" height="1000" xlink:href="#c"/>
 <use transform="matrix(-1 0 0 1 108.18 0)" width="2000" height="1000" xlink:href="#e"/>
 <use transform="matrix(-1 0 0 1 108.18 0)" width="2000" height="1000" xlink:href="#d"/>
 <g transform="matrix(.4499 0 0 -.60954 .10487 609.08)">
  <use transform="matrix(2.022 0 0 1.9715 120 678.78)" width="1000" height="500" fill="#fec50c" xlink:href="#b"/>
  <use transform="matrix(2.022 0 0 -2.1051 120 851.45)" width="1000" height="500" fill="#fec50c" xlink:href="#f"/>
  <use transform="matrix(2.022 0 0 -1.9715 120 679.72)" width="1000" height="500" fill="#fec50c" xlink:href="#b"/>
  <use transform="matrix(-1 0 0 1 240 400)" width="2000" height="1000" xlink:href="#c"/>
  <use transform="matrix(-1,0,0,1,240,400)" width="2000" height="1000" xlink:href="#e"/>
  <use transform="matrix(-1,0,0,1,240,400)" width="2000" height="1000" xlink:href="#d"/>
 </g>
</svg>
